<?xml version="1.0" encoding="utf-8"?>
<!-- Generator: Adobe Illustrator 24.1.0, SVG Export Plug-In . SVG Version: 6.00 Build 0)  -->
<svg version="1.1" id="Capa_1" xmlns="http://www.w3.org/2000/svg" xmlns:xlink="http://www.w3.org/1999/xlink" x="0px" y="0px"
	 viewBox="0 0 512 512" style="enable-background:new 0 0 512 512;" xml:space="preserve">
<style type="text/css">
	.st0{fill:#4F4F4F;}
</style>
<g>
	<path class="st0" d="M512,368.5v-300h-75V136h-38.5c0-12.4-10.1-22.5-22.5-22.5c-5.8,0-11,2.2-15,5.7c-4-3.6-9.2-5.7-15-5.7
		s-11,2.2-15,5.7c-4-3.6-9.2-5.7-15-5.7c-12.4,0-22.5,10.1-22.5,22.5h-105c0-12.4-10.1-22.5-22.5-22.5c-5.8,0-11,2.2-15,5.7
		c-4-3.6-9.2-5.7-15-5.7c-12.4,0-22.5,10.1-22.5,22.5H90v15h23.5c0,12.4,10.1,22.5,22.5,22.5c5.8,0,11-2.2,15-5.7
		c4,3.6,9.2,5.7,15,5.7c12.4,0,22.5-10.1,22.5-22.5h105c0,12.4,10.1,22.5,22.5,22.5c5.8,0,11-2.2,15-5.7c4,3.6,9.2,5.7,15,5.7
		s11-2.2,15-5.7c4,3.6,9.2,5.7,15,5.7c12.4,0,22.5-10.1,22.5-22.5H437v60h-38.5c0-12.4-10.1-22.5-22.5-22.5c-5.8,0-11,2.2-15,5.7
		c-4-3.6-9.2-5.7-15-5.7s-11,2.2-15,5.7c-4-3.6-9.2-5.7-15-5.7s-11,2.2-15,5.7c-4-3.6-9.2-5.7-15-5.7c-12.4,0-22.5,10.1-22.5,22.5
		h-105c0-12.4-10.1-22.5-22.5-22.5s-22.5,10.1-22.5,22.5H75V68.5H0v60h15v-45h45v345H15v-285H0v300h75V376h38.5
		c0,12.4,10.1,22.5,22.5,22.5s22.5-10.1,22.5-22.5h105c0,12.4,10.1,22.5,22.5,22.5c5.8,0,11-2.2,15-5.7c4,3.6,9.2,5.7,15,5.7
		s11-2.2,15-5.7c4,3.6,9.2,5.7,15,5.7s11-2.2,15-5.7c4,3.6,9.2,5.7,15,5.7c12.4,0,22.5-10.1,22.5-22.5H422v-15h-23.5
		c0-12.4-10.1-22.5-22.5-22.5c-5.8,0-11,2.2-15,5.7c-4-3.6-9.2-5.7-15-5.7s-11,2.2-15,5.7c-4-3.6-9.2-5.7-15-5.7s-11,2.2-15,5.7
		c-4-3.6-9.2-5.7-15-5.7c-12.4,0-22.5,10.1-22.5,22.5h-105c0-12.4-10.1-22.5-22.5-22.5s-22.5,10.1-22.5,22.5H75v-60h38.5
		c0,12.4,10.1,22.5,22.5,22.5c5.8,0,11-2.2,15-5.7c4,3.6,9.2,5.7,15,5.7s11-2.2,15-5.7c4,3.6,9.2,5.7,15,5.7
		c12.4,0,22.5-10.1,22.5-22.5h105c0,12.4,10.1,22.5,22.5,22.5c5.8,0,11-2.2,15-5.7c4,3.6,9.2,5.7,15,5.7c12.4,0,22.5-10.1,22.5-22.5
		H437v142.5h75v-60h-15v45h-45v-345h45v285H512z M143.5,151c0,4.1-3.4,7.5-7.5,7.5s-7.5-3.4-7.5-7.5v-15c0-4.1,3.4-7.5,7.5-7.5
		s7.5,3.4,7.5,7.5V151z M173.5,151c0,4.1-3.4,7.5-7.5,7.5s-7.5-3.4-7.5-7.5v-15c0-4.1,3.4-7.5,7.5-7.5s7.5,3.4,7.5,7.5V151z
		 M323.5,151c0,4.1-3.4,7.5-7.5,7.5s-7.5-3.4-7.5-7.5v-15c0-4.1,3.4-7.5,7.5-7.5s7.5,3.4,7.5,7.5V151z M353.5,151
		c0,4.1-3.4,7.5-7.5,7.5s-7.5-3.4-7.5-7.5v-15c0-4.1,3.4-7.5,7.5-7.5s7.5,3.4,7.5,7.5V151z M383.5,151c0,4.1-3.4,7.5-7.5,7.5
		s-7.5-3.4-7.5-7.5v-15c0-4.1,3.4-7.5,7.5-7.5s7.5,3.4,7.5,7.5V151z M368.5,361c0-4.1,3.4-7.5,7.5-7.5s7.5,3.4,7.5,7.5v15
		c0,4.1-3.4,7.5-7.5,7.5s-7.5-3.4-7.5-7.5V361z M338.5,361c0-4.1,3.4-7.5,7.5-7.5s7.5,3.4,7.5,7.5v15c0,4.1-3.4,7.5-7.5,7.5
		s-7.5-3.4-7.5-7.5V361z M308.5,361c0-4.1,3.4-7.5,7.5-7.5s7.5,3.4,7.5,7.5v15c0,4.1-3.4,7.5-7.5,7.5s-7.5-3.4-7.5-7.5V361z
		 M278.5,361c0-4.1,3.4-7.5,7.5-7.5s7.5,3.4,7.5,7.5v15c0,4.1-3.4,7.5-7.5,7.5s-7.5-3.4-7.5-7.5V361z M128.5,361
		c0-4.1,3.4-7.5,7.5-7.5s7.5,3.4,7.5,7.5v15c0,4.1-3.4,7.5-7.5,7.5s-7.5-3.4-7.5-7.5V361z M368.5,211c0-4.1,3.4-7.5,7.5-7.5
		s7.5,3.4,7.5,7.5v15c0,4.1-3.4,7.5-7.5,7.5s-7.5-3.4-7.5-7.5V211z M338.5,211c0-4.1,3.4-7.5,7.5-7.5s7.5,3.4,7.5,7.5v15
		c0,4.1-3.4,7.5-7.5,7.5s-7.5-3.4-7.5-7.5V211z M308.5,211c0-4.1,3.4-7.5,7.5-7.5s7.5,3.4,7.5,7.5v15c0,4.1-3.4,7.5-7.5,7.5
		s-7.5-3.4-7.5-7.5V211z M278.5,211c0-4.1,3.4-7.5,7.5-7.5s7.5,3.4,7.5,7.5v15c0,4.1-3.4,7.5-7.5,7.5s-7.5-3.4-7.5-7.5V211z
		 M128.5,211c0-4.1,3.4-7.5,7.5-7.5s7.5,3.4,7.5,7.5v15c0,4.1-3.4,7.5-7.5,7.5s-7.5-3.4-7.5-7.5V211z M143.5,301
		c0,4.1-3.4,7.5-7.5,7.5s-7.5-3.4-7.5-7.5v-15c0-4.1,3.4-7.5,7.5-7.5s7.5,3.4,7.5,7.5V301z M173.5,301c0,4.1-3.4,7.5-7.5,7.5
		s-7.5-3.4-7.5-7.5v-15c0-4.1,3.4-7.5,7.5-7.5s7.5,3.4,7.5,7.5V301z M203.5,301c0,4.1-3.4,7.5-7.5,7.5s-7.5-3.4-7.5-7.5v-15
		c0-4.1,3.4-7.5,7.5-7.5s7.5,3.4,7.5,7.5V301z M353.5,301c0,4.1-3.4,7.5-7.5,7.5s-7.5-3.4-7.5-7.5v-15c0-4.1,3.4-7.5,7.5-7.5
		s7.5,3.4,7.5,7.5V301z M383.5,301c0,4.1-3.4,7.5-7.5,7.5s-7.5-3.4-7.5-7.5v-15c0-4.1,3.4-7.5,7.5-7.5s7.5,3.4,7.5,7.5V301z
		 M398.5,286c0-12.4-10.1-22.5-22.5-22.5c-5.8,0-11,2.2-15,5.7c-4-3.6-9.2-5.7-15-5.7c-12.4,0-22.5,10.1-22.5,22.5h-105
		c0-12.4-10.1-22.5-22.5-22.5c-5.8,0-11,2.2-15,5.7c-4-3.6-9.2-5.7-15-5.7s-11,2.2-15,5.7c-4-3.6-9.2-5.7-15-5.7
		c-12.4,0-22.5,10.1-22.5,22.5H75v-60h38.5c0,12.4,10.1,22.5,22.5,22.5s22.5-10.1,22.5-22.5h105c0,12.4,10.1,22.5,22.5,22.5
		c5.8,0,11-2.2,15-5.7c4,3.6,9.2,5.7,15,5.7s11-2.2,15-5.7c4,3.6,9.2,5.7,15,5.7s11-2.2,15-5.7c4,3.6,9.2,5.7,15,5.7
		c12.4,0,22.5-10.1,22.5-22.5H437v60H398.5z"/>
	<path class="st0" d="M467,98.5h15v15h-15V98.5z"/>
	<path class="st0" d="M30,398.5h15v15H30V398.5z"/>
</g>
</svg>
