<svg id="Camada_1" data-name="Camada 1" xmlns="http://www.w3.org/2000/svg" viewBox="0 0 177.17 176.97"><defs><style>.cls-1{fill:#e08de8;}.cls-2{fill:#00ffce;}.cls-3{fill:#5a96ff;}.cls-4{fill:#ffff9b;}</style></defs><path class="cls-1" d="M156.94,529.31a87.91,87.91,0,0,0,58.45,26.22l.54-86.52-67.66-53.92A88.51,88.51,0,0,0,156.94,529.31Z" transform="translate(-131.38 -378.61)"/><path class="cls-2" d="M216,458.83l.5-80.22a88,88,0,0,0-58.77,25.47q-2.31,2.28-4.47,4.76Z" transform="translate(-131.38 -378.61)"/><path class="cls-3" d="M224.5,378.67,224,464.46l78.93,33.65A88.55,88.55,0,0,0,224.5,378.67Z" transform="translate(-131.38 -378.61)"/><path class="cls-4" d="M282.16,530.1a87.92,87.92,0,0,0,17.59-24.63l-75.84-32.34-.52,82.45A87.92,87.92,0,0,0,282.16,530.1Z" transform="translate(-131.38 -378.61)"/></svg>