<?xml version="1.0" encoding="utf-8"?>
<!-- Generator: Adobe Illustrator 24.1.2, SVG Export Plug-In . SVG Version: 6.00 Build 0)  -->
<svg version="1.1" id="Camada_1" xmlns="http://www.w3.org/2000/svg" xmlns:xlink="http://www.w3.org/1999/xlink" x="0px" y="0px"
	 viewBox="0 0 493.2 419.2" style="enable-background:new 0 0 493.2 419.2;" xml:space="preserve">
<style type="text/css">
	.st0{opacity:0.1;}
	.st1{enable-background:new    ;}
	.st2{clip-path:url(#SVGID_2_);}
	.st3{fill:#020203;}
	.st4{fill:#714C99;}
	.st5{fill:#523089;}
	.st6{fill:#1CAFA0;}
	.st7{fill:#7DC7BF;}
	.st8{fill:#2090B1;}
	.st9{fill:#DEF1F9;}
	.st10{fill:#EFB285;}
	.st11{fill:#C3DCE5;}
	.st12{fill:#010202;}
	.st13{fill:#C5599D;}
	.st14{fill:#D86DA7;}
	.st15{fill:#DD966B;}
	.st16{fill:#E7A478;}
	.st17{fill:#20150F;}
	.st18{fill:#321F14;}
</style>
<g class="st0">
	<g>
		<g class="st1">
			<g>
				<defs>
					<polygon id="SVGID_1_" points="58.7,362 287,229.3 373.3,279.2 145,411.9 					"/>
				</defs>
				<clipPath id="SVGID_2_">
					<use xlink:href="#SVGID_1_"  style="overflow:visible;"/>
				</clipPath>
				<g class="st2">
					<g>
						<g>
							<g>
								<polyline class="st3" points="373.3,279.2 287,229.3 58.7,362 139.8,408.8 373.3,279.2 								"/>
							</g>
						</g>
					</g>
				</g>
			</g>
		</g>
	</g>
</g>
<g>
	<g>
		<g>
			<g>
				<path class="st4" d="M293.3,18.6l-202,114.3v234.9l29.4,16.3L322.6,35.5L293.3,18.6z"/>
			</g>
		</g>
		<polygon class="st5" points="322.6,35.5 322.6,272.2 120.8,384.1 120.8,149.9 		"/>
		<g>
			<g>
				<polygon class="st6" points="219.7,155.4 219.7,322.2 271.8,292.1 271.8,125.3 				"/>
			</g>
		</g>
		<g>
			<g>
				<polygon class="st7" points="206.6,195.9 155.9,225.2 156.2,358.9 206.6,329.8 				"/>
			</g>
		</g>
		<g>
			<g>
				<polygon class="st8" points="336.1,140.1 285.3,169.4 285.7,284.1 336.1,255 				"/>
			</g>
		</g>
	</g>
</g>
<g>
	<g class="st0">
		<path class="st3" d="M340.9,343.5c14.9,8.6,15,22.5,0.2,31.1c-14.8,8.6-38.9,8.6-53.7,0c-14.9-8.6-15-22.5-0.2-31.1
			C302,334.9,326.1,334.9,340.9,343.5z"/>
	</g>
	<g>
		<g>
			<g>
				<path class="st9" d="M317.4,204.8c0,0-0.6-6.9-10.3-6.3c-9.8,0.5-19.5,2.3-19.5,2.3L271.5,185c0,0-4.2,0.9-5,3.7
					c0,0,11.1,19,19.1,22.1C285.7,210.9,320.8,219.9,317.4,204.8z"/>
			</g>
			<g>
				<path class="st10" d="M270.7,185.2c0,0-0.8-4.9-2.2-6.7c-1.3-1.8-2.8-2.6-3.3-2.8c-0.6-0.2,0.7,2.1,1.1,2.8s0.2,2.8-3.8-0.6
					c-4-3.4-3.4-2.2-3.4-1.8c-0.1,0.5,2.7,8.8,7.7,11.9C266.8,188.2,267.6,186.4,270.7,185.2z"/>
			</g>
			<g>
				<path class="st11" d="M285.7,210.9c-8-3-19.1-22.1-19.1-22.1c0.2-0.8,0.7-1.4,1.3-2c2.7,3.6,10.5,14.1,15.6,19.6
					c6.2,6.7,34.1,1.3,34.2,1.1C316.2,218.7,285.7,210.9,285.7,210.9z"/>
			</g>
		</g>
		<g>
			<path class="st12" d="M313.4,338c0,0-3.8,0.9-2.7,3.1c1.1,2.2,5.9,5.2,6.6,6.5c0.7,1.3,4.9,6.1,5.9,5.5c1.1-0.6,4.3-0.1,3.4-5.9
				C325.9,341.5,318.6,337.2,313.4,338z"/>
		</g>
		<g>
			<path class="st12" d="M318.5,350.3c0,0,2.9,5.1-1.5,7.3c-4.4,2.2-3.6-1-13.2,3.6c-9.6,4.6-11.8-0.5-11.8-1.7
				c0-1.2,6.3-4.7,8.4-5.7s6.1-2.9,6.1-2.9l12-2.4L318.5,350.3z"/>
		</g>
		<g>
			<g>
				<path class="st13" d="M318.7,260.7c0,0,3,33.5,3.4,37.3c0.3,3.8,7.2,33.1,5.8,46.4c0,0-6.7,8-13.8,1.2c0,0-5.3-37.1-8-45.3
					c-2.6-8.2-4.3-34-4.3-34L318.7,260.7z"/>
			</g>
		</g>
		<g>
			<path class="st13" d="M307,257.7c0,0,2.6,21.7,5,43.1c0,0,7.2,42.2,7.4,48.5c0,0-12.9,6-15.5-0.1c0,0-7-37-8.8-44.7
				c-1.9-7.6-8.4-31.5-7.8-44.5S307,257.7,307,257.7z"/>
		</g>
		<g>
			<g>
				<path class="st14" d="M319.4,349.2c-0.2-6.3-7.4-48.5-7.4-48.5c-1.7-14.4-3.6-31.4-4.6-39.3l-8.8,3.6c0,0-1.8,19.5,3.8,43.1
					c4.3,18.2,8.2,36.2,9.7,43.5C315.9,350.9,319.4,349.2,319.4,349.2z"/>
			</g>
		</g>
		<g>
			<path class="st14" d="M327.8,344.4c1.3-13.2-5.5-42.6-5.8-46.4c-0.3-3.6-1.9-32.3-2.1-35.2l-8.1,4.5c0,0-0.2,24.2,3.3,37.7
				c3.2,12.2,4,36.6,5.7,43.4C324.8,347.9,327.8,344.4,327.8,344.4z"/>
		</g>
		<g>
			<path class="st9" d="M314.5,198.5c0,0,7.5,2.8,4.8,15.2c-2.6,12.5-4.6,20.6-3.8,25s3.8,20.9,5.1,23.9c0,0,1.1,5.1-17.8,9.9
				c0,0-17.1,4-15.5-8.6c1.7-12.6-2.2-25.7-3.2-30.4s-4.9-13.8,6.1-21.5C301.3,204.3,306.9,198.9,314.5,198.5z"/>
		</g>
		<g>
			<g>
				<path class="st10" d="M305.5,193.5c0,0-0.1,6.3,2.6,10.1c2.4,3.4-12.1,8.2-12.8,5c-0.1-0.3,2.2-6.1-2.2-12.1
					C290.9,193.3,305.5,193.5,305.5,193.5z"/>
			</g>
			<g>
				<path class="st15" d="M308,203.8c-2-2.8-2.4-7-2.5-9l-10.2,6.5l0,0c0.4,0.1,7.9,1.1,10.1,6.1C307.5,206.4,308.9,205,308,203.8z"
					/>
			</g>
			<g>
				<path class="st10" d="M288,178.6c0,0-1.7,5.9-0.7,10.8c1.1,5.2,0.4,6.4,1,8.7c0.3,1,0.5,2.5,1.6,3.3c1.8,1.4,5.2,1.6,9.6-0.6
					c5.3-2.6,10.3-10.9,7.1-17.4C303.6,176.9,295.7,172.1,288,178.6z"/>
			</g>
			<g>
				<path class="st16" d="M307.3,190.8c-2.9-5.9-9.2-12.6-9.2-13c0-0.3-2-1.1-4.2-2.2c-1.9,0.3-3.9,1.3-5.9,2.9c0,0-0.5,1.6-0.7,3.8
					c1.5,1.3,4.3,2.7,4.9,3.9c1.3,2.8,1.3,7.4,0.6,9.4c-0.7,2.1,3.2,4.5,2.6,6.3c0,0.1,0,0.1,0,0.3c1.3-0.3,2.6-0.7,4.2-1.4
					C303,199.1,306.2,195.2,307.3,190.8z"/>
			</g>
			<g>
				<path class="st17" d="M286.1,176.5c0,0-0.3,5,4.9,6.8c3,1.1,3.3,5.8,3.2,6.7s-0.5,4.9,0,5.4c0.8,0.9,2.7-2.4,3.8-2.3
					c2.8,0.2,2,2.9-0.1,5.9c-2.4,3.2,4.8,3.5,7.7,0.8c1.6-1.4,2.1-2.2,3.8-7c2.6-6.9,1.8-14.7-6.3-18
					C294.9,171.3,291.1,177.8,286.1,176.5z"/>
			</g>
			<g>
				<path class="st18" d="M305.6,199.6c1.6-1.4,2.1-2.2,3.8-7c2.6-6.9,1.8-14.7-6.3-18c-8.2-3.3-11.9,3.2-16.9,1.8
					c0,0-0.1,0.9,0.3,2c2.5,0.1,9.3,0.7,11.3,3.4c2.5,3.3,4.7,1.9,5.1,6.3c0.3,4.3,2,9.7-4.8,12.9
					C300.8,202.6,304.4,200.7,305.6,199.6z"/>
			</g>
		</g>
		<g>
			<path class="st11" d="M295.8,206.5l-4.4,4.6c0,0,15.5,2.6,19-5.3c0.5-1.1-0.7-4.5-3.3-4.9C307.3,201,307.4,207,295.8,206.5z"/>
		</g>
		<g>
			<path class="st11" d="M286.1,263.4c1.7-12.6-1-25.3-2-30c-1-4.6-4.8-13.6,5.9-21.3c4.3,2,10.5,6.5,8.3,15.6
				c-2.8,11.3-1.5,35-1.1,45.2C292.3,273,285.1,271.2,286.1,263.4z"/>
		</g>
		<path class="st10" d="M260.7,191c0,0,0.5-3.7-0.7-4.9c-1.1-1.2-3.6-6.3-4.7-7c-1.1-0.7-0.7,1.3-0.3,2.7c0.3,1.3,0.1,4-0.3,3.6
			s-2.6,1.2-2.2,3.1c0.4,1.9,3.4,4.9,3.5,5.4C256,194.3,260.7,191,260.7,191z"/>
		<g>
			<path class="st9" d="M295.3,220.6c0,0,1.3-6.1-7.3-8.2s-17.4-3.2-17.4-3.2l-9.9-17.8c0,0-3.8-0.3-5.3,2c0,0,4.6,19.4,10.7,24.2
				C266.2,217.5,294.2,234.5,295.3,220.6z"/>
		</g>
	</g>
</g>
</svg>
