<?xml version="1.0" encoding="utf-8"?>
<!-- Generator: Adobe Illustrator 24.1.2, SVG Export Plug-In . SVG Version: 6.00 Build 0)  -->
<svg version="1.1" id="Capa_1" xmlns="http://www.w3.org/2000/svg" xmlns:xlink="http://www.w3.org/1999/xlink" x="0px" y="0px"
	 viewBox="0 0 512.5 512.5" style="enable-background:new 0 0 512.5 512.5;" xml:space="preserve">
<style type="text/css">
	.st0{fill:#FFC107;}
	.st1{fill:#6C63FF;}
	.st2{fill:#4CAF50;}
</style>
<path class="st0" d="M265,46.3c-4.8,0-8.7,3.9-8.7,8.7v192.2c0,4.8,3.9,8.7,8.7,8.7h192.2c4.8,0,8.7-3.9,8.7-8.7
	C465.9,136.4,376,46.5,265,46.3z"/>
<path class="st1" d="M359.3,416.7L238.8,261.8V72.5c0-4.8-3.9-8.7-8.7-8.7c-101.2,0-183.5,90.2-183.5,201
	c0.1,110.9,90,200.9,201,201c40.3,3.1,80.1-10.2,110.4-36.9C361.6,425.8,362.2,420.5,359.3,416.7z"/>
<path class="st2" d="M457.3,273.5H282.5c-4.8,0-8.7,3.9-8.7,8.7c0,2,0.7,3.9,1.9,5.5l113.6,140.6c1.5,1.9,3.8,3.1,6.2,3.2h0.6
	c2.2,0,4.3-0.8,6-2.3c40.7-38.1,63.9-91.3,63.9-147C466,277.4,462.1,273.5,457.3,273.5z"/>
</svg>
