<?xml version="1.0" encoding="utf-8"?>
<!-- Generator: Adobe Illustrator 24.1.2, SVG Export Plug-In . SVG Version: 6.00 Build 0)  -->
<svg version="1.1" id="Capa_1" xmlns="http://www.w3.org/2000/svg" xmlns:xlink="http://www.w3.org/1999/xlink" x="0px" y="0px"
	 viewBox="0 0 512 512" style="enable-background:new 0 0 512 512;" xml:space="preserve">
<style type="text/css">
	.st0{fill:#E6A433;}
	.st1{fill:#2984E6;}
</style>
<g>
	
		<rect x="6.3" y="253.9" transform="matrix(0.8536 -0.5209 0.5209 0.8536 -99.3953 173.6694)" class="st0" width="506.1" height="19.6"/>
	<circle class="st1" cx="96.4" cy="440.7" r="12.6"/>
	<circle class="st1" cx="78.4" cy="319.9" r="12.6"/>
	<circle class="st1" cx="178.6" cy="354.6" r="12.6"/>
	<circle class="st1" cx="186.3" cy="144" r="12.6"/>
	<circle class="st1" cx="274" cy="251.5" r="12.6"/>
	<circle class="st1" cx="320.3" cy="256" r="12.6"/>
	<circle class="st1" cx="367.9" cy="156.6" r="12.6"/>
	<circle class="st1" cx="438.2" cy="169.2" r="12.6"/>
	<circle class="st1" cx="425.6" cy="106" r="12.6"/>
	<circle class="st1" cx="409.8" cy="201.6" r="12.6"/>
	<circle class="st1" cx="309.5" cy="166.9" r="12.6"/>
	<circle class="st1" cx="286.6" cy="319.9" r="12.6"/>
	<circle class="st1" cx="214.1" cy="270" r="12.6"/>
	<circle class="st1" cx="167.9" cy="265.5" r="12.6"/>
	<circle class="st1" cx="120.3" cy="364.9" r="12.6"/>
	<circle class="st1" cx="50" cy="352.2" r="12.6"/>
</g>
</svg>
