<?xml version="1.0" encoding="utf-8"?>
<!-- Generator: Adobe Illustrator 24.1.0, SVG Export Plug-In . SVG Version: 6.00 Build 0)  -->
<svg version="1.1" id="Camada_1" xmlns="http://www.w3.org/2000/svg" xmlns:xlink="http://www.w3.org/1999/xlink" x="0px" y="0px"
	 viewBox="0 0 222.9 221.2" style="enable-background:new 0 0 222.9 221.2;" xml:space="preserve">
<style type="text/css">
	.st0{fill:#5A96FF;}
	.st1{fill:none;stroke:#3310DC;stroke-miterlimit:10;}
	.st2{fill:none;}
</style>
<path class="st0" d="M116.9,193.3h106c-49.8,0-64.7-133.7-106-137.9V193.3z"/>
<path class="st0" d="M112.9,55.4c-41.3,4.2-56.2,137.9-106,137.9h106V55.4z"/>
<path class="st1" d="M222.8,193.3c-50.6,0-65.1-138-108-138s-57.4,138-108,138"/>
<polyline class="st1" points="222.9,193.3 6.9,193.3 6.9,27.9 "/>
<line class="st1" x1="6.9" y1="51.5" x2="0" y2="51.5"/>
<line class="st1" x1="0" y1="27.9" x2="6.9" y2="27.9"/>
<line class="st1" x1="6.9" y1="75.1" x2="0" y2="75.1"/>
<line class="st1" x1="6.9" y1="98.8" x2="0" y2="98.8"/>
<line class="st1" x1="6.9" y1="122.4" x2="0" y2="122.4"/>
<line class="st1" x1="6.9" y1="146" x2="0" y2="146"/>
<line class="st1" x1="6.9" y1="169.7" x2="0" y2="169.7"/>
<line class="st1" x1="6.9" y1="193.3" x2="0" y2="193.3"/>
<line class="st1" x1="192" y1="200.2" x2="192" y2="193.4"/>
<line class="st1" x1="222.4" y1="193" x2="222.4" y2="199.9"/>
<line class="st1" x1="161.1" y1="200.2" x2="161.1" y2="193.4"/>
<line class="st1" x1="130.3" y1="200.2" x2="130.3" y2="193.4"/>
<line class="st1" x1="99.4" y1="200.2" x2="99.4" y2="193.4"/>
<line class="st1" x1="68.6" y1="200.2" x2="68.6" y2="193.4"/>
<path class="st1" d="M99.4,200.2"/>
<line class="st1" x1="37.7" y1="200.2" x2="37.7" y2="193.4"/>
<line class="st1" x1="6.9" y1="200.2" x2="6.9" y2="193.4"/>
<rect x="1.2" y="0" class="st2" width="221.2" height="221.2"/>
</svg>
