<?xml version="1.0" encoding="utf-8"?>
<!-- Generator: Adobe Illustrator 24.1.2, SVG Export Plug-In . SVG Version: 6.00 Build 0)  -->
<svg version="1.1" id="Camada_1" xmlns="http://www.w3.org/2000/svg" xmlns:xlink="http://www.w3.org/1999/xlink" x="0px" y="0px"
	 viewBox="0 0 222.9 221.2" style="enable-background:new 0 0 222.9 221.2;" xml:space="preserve">
<style type="text/css">
	.st0{fill:none;}
	.st1{fill:#5D5E5E;}
	.st2{fill:#3CA93C;}
</style>
<rect x="1.2" y="0" class="st0" width="221.2" height="221.2"/>
<rect y="-0.6" class="st0" width="222.4" height="222.4"/>
<g>
	<g>
		<rect x="17.5" y="189.5" class="st1" width="188.1" height="4"/>
		<path class="st1" d="M112.1,176.5h-1.3v-5.3h1.3V176.5z M112.1,165.9h-1.3v-5.3h1.3V165.9z M112.1,155.3h-1.3V150h1.3V155.3z
			 M112.1,144.7h-1.3v-5.3h1.3V144.7z M112.1,134h-1.3v-5.3h1.3V134z M112.1,123.4h-1.3v-5.3h1.3V123.4z M112.1,112.8h-1.3v-5.3h1.3
			V112.8z M112.1,102.2h-1.3v-5.3h1.3V102.2z M112.1,91.6h-1.3v-5.3h1.3V91.6z M112.1,80.9h-1.3v-5.3h1.3V80.9z M112.1,70.3h-1.3V65
			h1.3V70.3z M112.1,59.7h-1.3v-5.3h1.3V59.7z M112.1,49.1h-1.3v-5.3h1.3V49.1z M112.1,38.4h-1.3v-5.3h1.3V38.4z M110.8,27.8
			L110.8,27.8l1.3-0.1L110.8,27.8z"/>
		<polygon class="st1" points="44.5,154.5 33.9,165.1 33.9,191.5 44.5,191.5 		"/>
		<polygon class="st1" points="60.6,122.5 50,143.7 50,191.5 60.6,191.5 		"/>
		<polygon class="st1" points="76.7,80.5 66,106.6 66,191.5 76.7,191.5 		"/>
		<polygon class="st1" points="92.7,57.6 82.1,72 82.1,191.5 92.7,191.5 		"/>
		<rect x="98.2" y="53.5" class="st1" width="10.6" height="138.1"/>
		<rect x="114.2" y="53.5" class="st1" width="10.6" height="138.1"/>
		<polygon class="st1" points="140.9,72 130.3,57.6 130.3,191.5 140.9,191.5 		"/>
		<polygon class="st1" points="157,106.6 146.4,80.5 146.4,191.5 157,191.5 		"/>
		<polygon class="st1" points="173,143.7 162.4,122.5 162.4,191.5 173,191.5 		"/>
		<polygon class="st1" points="189,165.1 178.4,154.5 178.4,191.5 189,191.5 		"/>
		<path class="st2" d="M205.6,174.3c-25.8,0-38.1-31.7-50.2-62.3c-11.2-28.5-22.7-58.1-43.9-58.1S78.7,83.3,67.5,112
			c-11.9,30.7-24.3,62.3-50.2,62.3v-6.6c21.2,0,32.8-29.5,43.9-58.1c11.9-30.7,24.3-62.3,50.2-62.3c25.8,0,38.1,31.7,50.2,62.3
			c11.2,28.5,22.7,58.1,43.9,58.1V174.3z"/>
	</g>
</g>
</svg>
