<?xml version="1.0" encoding="utf-8"?>
<!-- Generator: Adobe Illustrator 24.1.2, SVG Export Plug-In . SVG Version: 6.00 Build 0)  -->
<svg version="1.1" id="Camada_1" xmlns="http://www.w3.org/2000/svg" xmlns:xlink="http://www.w3.org/1999/xlink" x="0px" y="0px"
	 viewBox="0 0 1005.4 841.9" style="enable-background:new 0 0 1005.4 841.9;" xml:space="preserve">
<style type="text/css">
	.st0{fill:#AAD6E9;}
	.st1{fill:#95C4DE;}
	.st2{fill:#DFF1FB;}
	.st3{fill:url(#SVGID_1_);}
	.st4{fill:#76B2CC;}
	.st5{fill:url(#SVGID_2_);}
	.st6{enable-background:new    ;}
	.st7{clip-path:url(#SVGID_3_);enable-background:new    ;}
	.st8{fill:#B9397C;}
	.st9{opacity:0.1;}
	.st10{fill:#020203;}
	.st11{fill:url(#SVGID_4_);}
	.st12{fill:url(#SVGID_5_);}
	.st13{fill:#FFE960;}
	.st14{fill:url(#SVGID_6_);}
	.st15{fill:url(#SVGID_7_);}
	.st16{fill:url(#SVGID_8_);}
	.st17{fill:url(#SVGID_9_);}
	.st18{fill:url(#SVGID_10_);}
	.st19{fill:url(#SVGID_11_);}
	.st20{fill:#BAD1DE;}
	.st21{fill:#EFB285;}
	.st22{fill:#A4C2CE;}
	.st23{fill:#FFFFFF;}
	.st24{fill:#9CBC35;}
	.st25{fill:#789F2C;}
	.st26{fill:#CAE0EA;}
	.st27{fill:#DD966A;}
	.st28{fill:#F2B890;}
	.st29{fill:#E7A477;}
	.st30{fill:#321E11;}
	.st31{fill:#20140D;}
	.st32{fill:#9EBDCA;}
	.st33{fill:#E3E7EE;}
	.st34{fill:#A5AAB4;}
	.st35{clip-path:url(#SVGID_13_);}
	.st36{fill:#522F88;}
	.st37{fill:#704B99;}
	.st38{fill:#19AE9F;}
	.st39{fill:#7CC7BF;}
	.st40{fill:#1D90B0;}
	.st41{clip-path:url(#SVGID_16_);}
	.st42{fill:#B5DEDC;}
	.st43{clip-path:url(#SVGID_18_);}
	.st44{fill:#A5CD82;}
	.st45{fill:#DEF1F9;}
	.st46{fill:#C2DBE5;}
	.st47{fill:#DEDDF0;}
	.st48{fill:#C5589C;}
	.st49{fill:#D86DA7;}
</style>
<g>
	<g>
		<g>
			<path d="M499.6,580.2c-6.2,3.6-6.2,9.3-0.1,12.9l12.2,7.1l226.6,132.6l18.9,11.1c6.1,3.6,16.1,3.6,22.3,0.1L911.9,668
				c6.2-3.6,6.2-9.3,0.1-12.9L654.3,504.3c-6.1-3.6-16.1-3.6-22.3-0.1L499.6,580.2z"/>
		</g>
		<path class="st0" d="M494.8,538.4c0,0.5,0.1,1.1,0.3,1.6c0,0.1,0,0.1,0.1,0.2c0.2,0.5,0.4,1,0.8,1.5c0.1,0.1,0.1,0.2,0.2,0.2
			c0.3,0.5,0.8,0.9,1.3,1.4c0.3,0.3,0.7,0.6,1.1,0.8c0.3,0.2,0.6,0.5,1,0.7l12.2,7.1l0.1,20.6l-12.2-7.1c-0.1,0-0.1-0.1-0.2-0.1
			c-0.3-0.2-0.5-0.4-0.8-0.6c-0.4-0.3-0.8-0.5-1.1-0.8c0,0-0.1-0.1-0.1-0.1c-0.4-0.3-0.7-0.7-1-1.1c-0.1-0.1-0.1-0.2-0.2-0.2
			c-0.1-0.1-0.1-0.2-0.2-0.3c-0.1-0.2-0.2-0.3-0.3-0.4c-0.2-0.3-0.3-0.6-0.4-0.9c0,0,0-0.1,0-0.1c0-0.1,0-0.1-0.1-0.2
			c-0.1-0.2-0.1-0.4-0.2-0.6c-0.1-0.3-0.1-0.6-0.1-0.9V559c0,0,0,0,0,0c0-6,0-12-0.1-17.9l0-2.5
			C494.8,538.5,494.8,538.4,494.8,538.4z"/>
		<path class="st1" d="M912,618.5c3.1-1.8,4.7-4.2,4.7-6.5l0.1,20.6c0,2.4-1.5,4.7-4.7,6.5l-132.2,76.3l-0.1-20.6L912,618.5z"/>
		<path class="st0" d="M757.5,694.8c1,0.6,2,1,3.1,1.4c0.4,0.1,0.8,0.2,1.2,0.4c0.5,0.1,1,0.3,1.6,0.4c0.6,0.1,1.3,0.2,1.9,0.3
			c0.2,0,0.3,0,0.5,0.1c0.9,0.1,1.8,0.1,2.7,0.2c0.1,0,0.3,0,0.4,0c0.9,0,1.8-0.1,2.6-0.1c0.1,0,0.2,0,0.4,0
			c0.9-0.1,1.7-0.3,2.6-0.4c0.1,0,0.3-0.1,0.4-0.1c0.8-0.2,1.5-0.4,2.2-0.7c0.1,0,0.2-0.1,0.4-0.1c0.9-0.3,1.7-0.7,2.4-1.1l0.1,20.6
			c-0.7,0.4-1.5,0.8-2.3,1.1c0,0-0.1,0-0.1,0c-0.1,0-0.3,0.1-0.4,0.1c-0.5,0.2-0.9,0.3-1.4,0.5c-0.3,0.1-0.5,0.1-0.8,0.2
			c-0.1,0-0.3,0.1-0.4,0.1c-0.1,0-0.3,0.1-0.4,0.1c-0.5,0.1-1,0.2-1.6,0.3c-0.2,0-0.4,0-0.5,0.1c-0.1,0-0.3,0-0.4,0
			c-0.2,0-0.4,0-0.6,0.1c-0.5,0-1,0.1-1.6,0.1c-0.2,0-0.3,0-0.5,0c-0.2,0-0.3,0-0.4,0c-0.2,0-0.5,0-0.7,0c-0.6,0-1.2-0.1-1.7-0.1
			c-0.1,0-0.1,0-0.2,0c-0.1,0-0.3,0-0.5-0.1c-0.5-0.1-0.9-0.1-1.3-0.2c-0.2,0-0.4-0.1-0.6-0.1c-0.5-0.1-1.1-0.2-1.6-0.4
			c-0.3-0.1-0.6-0.1-0.8-0.2c-0.1,0-0.2-0.1-0.4-0.2c-1.1-0.4-2.2-0.8-3.1-1.4l-18.9-11l-0.1-20.6L757.5,694.8z"/>
		<g>
			<g>
				<path class="st2" d="M499.5,531.9c-6.2,3.6-6.2,9.4-0.1,12.9l12.2,7.1l227,131.9l18.9,11c6.2,3.6,16.1,3.6,22.3,0L912,618.5
					c6.2-3.6,6.2-9.3,0.1-12.9l-258.2-150c-6.1-3.6-16.1-3.6-22.3,0L499.5,531.9z"/>
			</g>
		</g>
		<g>
			<g>
				
					<linearGradient id="SVGID_1_" gradientUnits="userSpaceOnUse" x1="128.632" y1="479.3619" x2="-198.1635" y2="664.862" gradientTransform="matrix(-1 0 0 1 665.6191 0)">
					<stop  offset="0" style="stop-color:#1A6CB3"/>
					<stop  offset="1" style="stop-color:#1D4C92"/>
				</linearGradient>
				<polygon class="st3" points="511.6,551.9 738.6,683.8 893.2,594.6 666.2,462.7 				"/>
			</g>
		</g>
		<g>
			<path class="st4" d="M550.8,513.4c-1.7,1-1.7,2.9,0.7,4.2c1.7,0.9,3.8,1.6,5.5,0.6l48.1-27.3c1.7-1-0.5-3.2-2.1-4.2
				c-1.6-0.9-4.3-1-5.9,0L550.8,513.4z"/>
		</g>
		<g>
			<path class="st0" d="M552.3,514.7c-1.6,1-1.7,2.5,0,3.5c1.6,0.9,4.3,0.9,6,0l46.2-26.7c1.6-1,1.6-2.5,0-3.5c-1.6-0.9-4.3-0.9-6,0
				L552.3,514.7z"/>
		</g>
		<g>
			
				<linearGradient id="SVGID_2_" gradientUnits="userSpaceOnUse" x1="-73.0487" y1="628.1708" x2="153.9872" y2="628.1708" gradientTransform="matrix(-1 0 0 1 665.6191 0)">
				<stop  offset="0" style="stop-color:#1D4C92"/>
				<stop  offset="1" style="stop-color:#265DA8"/>
			</linearGradient>
			<polygon class="st5" points="511.6,551.9 511.7,572.5 738.7,704.4 738.6,683.8 			"/>
		</g>
		<g class="st6">
			<defs>
				<path id="SVGID_15_" class="st6" d="M611.2,566.1c0-1.7,0-3.3,0-5l0,0l0,0l0,0C611.2,562.8,611.2,564.5,611.2,566.1z"/>
			</defs>
			<clipPath id="SVGID_3_">
				<use xlink:href="#SVGID_15_"  style="overflow:visible;"/>
			</clipPath>
			<g class="st7">
				<path class="st8" d="M609.6,560.4l0,5.7c0.6,0.2,1.1,0.4,1.5,0.7c0,0,0.1,0,0.1,0.1l0-5.7c0,0-0.1,0-0.1-0.1
					C610.7,560.8,610.2,560.6,609.6,560.4L609.6,560.4z"/>
			</g>
		</g>
	</g>
	<g>
		<g class="st9">
			<polygon class="st10" points="870.8,590.7 783.1,641.6 580.7,524.8 670.5,472 			"/>
		</g>
		<g>
			<g>
				<g class="st6">
					<g>
						
							<linearGradient id="SVGID_4_" gradientUnits="userSpaceOnUse" x1="687.5488" y1="500.6164" x2="723.1099" y2="500.6164" gradientTransform="matrix(1 0 0 1 -71.0313 0)">
							<stop  offset="0" style="stop-color:#FFDF0C"/>
							<stop  offset="0.2046" style="stop-color:#F5CD08"/>
							<stop  offset="0.493" style="stop-color:#EABA05"/>
							<stop  offset="0.7646" style="stop-color:#E3AF04"/>
							<stop  offset="1" style="stop-color:#E1AB04"/>
						</linearGradient>
						<polygon class="st11" points="652.1,456.2 651.9,524.5 616.5,545 616.7,476.7 						"/>
					</g>
					<g>
						
							<linearGradient id="SVGID_5_" gradientUnits="userSpaceOnUse" x1="673.0086" y1="451.6383" x2="665.5585" y2="567.1029" gradientTransform="matrix(1 0 0 1 -71.0313 0)">
							<stop  offset="0" style="stop-color:#FFDF0C"/>
							<stop  offset="0.2046" style="stop-color:#F5CD08"/>
							<stop  offset="0.493" style="stop-color:#EABA05"/>
							<stop  offset="0.7646" style="stop-color:#E3AF04"/>
							<stop  offset="1" style="stop-color:#E1AB04"/>
						</linearGradient>
						<polygon class="st12" points="616.7,476.7 616.5,545 580.9,524.5 581.1,456.2 						"/>
					</g>
					<g>
						<polygon class="st13" points="652.1,456.2 616.7,476.7 581.1,456.2 616.5,435.6 						"/>
					</g>
				</g>
			</g>
			<g>
				<g class="st6">
					<g>
						
							<linearGradient id="SVGID_6_" gradientUnits="userSpaceOnUse" x1="740.913" y1="510.8783" x2="776.6028" y2="510.8783" gradientTransform="matrix(1 0 0 1 -71.0313 0)">
							<stop  offset="0" style="stop-color:#FFDF0C"/>
							<stop  offset="0.2046" style="stop-color:#F5CD08"/>
							<stop  offset="0.493" style="stop-color:#EABA05"/>
							<stop  offset="0.7646" style="stop-color:#E3AF04"/>
							<stop  offset="1" style="stop-color:#E1AB04"/>
						</linearGradient>
						<polygon class="st14" points="705.6,443.7 705.2,557.5 669.9,578.1 670.2,464.2 						"/>
					</g>
					<g>
						
							<linearGradient id="SVGID_7_" gradientUnits="userSpaceOnUse" x1="725.8276" y1="434.1836" x2="720.2412" y2="602.7092" gradientTransform="matrix(1 0 0 1 -71.0313 0)">
							<stop  offset="0" style="stop-color:#FFDF0C"/>
							<stop  offset="0.2046" style="stop-color:#F5CD08"/>
							<stop  offset="0.493" style="stop-color:#EABA05"/>
							<stop  offset="0.7646" style="stop-color:#E3AF04"/>
							<stop  offset="1" style="stop-color:#E1AB04"/>
						</linearGradient>
						<polygon class="st15" points="670.2,464.2 669.9,578.1 634.3,557.5 634.6,443.7 						"/>
					</g>
					<g>
						<polygon class="st13" points="705.6,443.7 670.2,464.2 634.6,443.7 670,423.1 						"/>
					</g>
				</g>
			</g>
			<g>
				<g class="st6">
					<g>
						
							<linearGradient id="SVGID_8_" gradientUnits="userSpaceOnUse" x1="794.342" y1="519.9626" x2="830.1482" y2="519.9626" gradientTransform="matrix(1 0 0 1 -71.0313 0)">
							<stop  offset="0" style="stop-color:#FFDF0C"/>
							<stop  offset="0.2046" style="stop-color:#F5CD08"/>
							<stop  offset="0.493" style="stop-color:#EABA05"/>
							<stop  offset="0.7646" style="stop-color:#E3AF04"/>
							<stop  offset="1" style="stop-color:#E1AB04"/>
						</linearGradient>
						<polygon class="st16" points="759.1,430 758.7,589.4 723.3,609.9 723.8,450.5 						"/>
					</g>
					<g>
						
							<linearGradient id="SVGID_9_" gradientUnits="userSpaceOnUse" x1="777.8942" y1="441.3153" x2="775.1008" y2="637.7759" gradientTransform="matrix(1 0 0 1 -71.0313 0)">
							<stop  offset="0" style="stop-color:#FFDF0C"/>
							<stop  offset="0.2046" style="stop-color:#F5CD08"/>
							<stop  offset="0.493" style="stop-color:#EABA05"/>
							<stop  offset="0.7646" style="stop-color:#E3AF04"/>
							<stop  offset="1" style="stop-color:#E1AB04"/>
						</linearGradient>
						<polygon class="st17" points="723.8,450.5 723.3,609.9 687.7,589.4 688.2,430 						"/>
					</g>
					<g>
						<polygon class="st13" points="759.1,430 723.8,450.5 688.2,430 723.5,409.5 						"/>
					</g>
				</g>
			</g>
			<g>
				<g class="st6">
					<g>
						
							<linearGradient id="SVGID_10_" gradientUnits="userSpaceOnUse" x1="869.9984" y1="436.9377" x2="873.722" y2="623.1622" gradientTransform="matrix(1 0 0 1 -71.0313 0)">
							<stop  offset="0" style="stop-color:#FFDF0C"/>
							<stop  offset="0.2046" style="stop-color:#F5CD08"/>
							<stop  offset="0.493" style="stop-color:#EABA05"/>
							<stop  offset="0.7646" style="stop-color:#E3AF04"/>
							<stop  offset="1" style="stop-color:#E1AB04"/>
						</linearGradient>
						<polygon class="st18" points="818.8,417.5 818.2,622.4 782.9,643 783.4,438 						"/>
					</g>
					<g>
						
							<linearGradient id="SVGID_11_" gradientUnits="userSpaceOnUse" x1="839.7743" y1="433.2094" x2="832.3271" y2="647.3672" gradientTransform="matrix(1 0 0 1 -71.0313 0)">
							<stop  offset="0" style="stop-color:#FFDF0C"/>
							<stop  offset="0.2046" style="stop-color:#F5CD08"/>
							<stop  offset="0.493" style="stop-color:#EABA05"/>
							<stop  offset="0.7646" style="stop-color:#E3AF04"/>
							<stop  offset="1" style="stop-color:#E1AB04"/>
						</linearGradient>
						<polygon class="st19" points="783.4,438 782.9,643 747.3,622.4 747.9,417.5 						"/>
					</g>
					<g>
						<polygon class="st13" points="818.8,417.5 783.4,438 747.9,417.5 783.2,397 						"/>
					</g>
				</g>
			</g>
		</g>
	</g>
	<g>
		<path class="st20" d="M651.6,493c0,0,7.8,1,7.5,9.8c-0.3,8.9-8.5,47.2-18,54.9c-9.4,7.6-9.2-10.5-9.2-10.5S637.8,491.1,651.6,493z
			"/>
		<path class="st21" d="M598.4,554.2c0,0-10.8,2-18.1-1c-7.4-3-5.6-3.3-5-4.4c1.2-2.4,10.9-1.7,12.7-2.2c1.8-0.5-1.5-1.9-2.2-3.1
			c-0.7-1.2-2.4-2.7-1.8-3.1c0.6-0.4,2.1-0.8,4.8,1.4c2.7,2.2,9.6,5.1,9.6,5.1L598.4,554.2z"/>
		<path class="st20" d="M596.9,545.8c0,0,0.6,2.1,0.6,4.8c0,3.3-1.5,5.5-1.5,5.5s35.1,7,44,2.5c0,0,8.6-13.3-4.6-16.8L596.9,545.8z"
			/>
		<path class="st22" d="M636.9,559.6c0.8,0.1,1.8-0.2,2.9-0.9c0,0,0.1,0,0.1-0.1c0,0,0,0,0-0.1c0.4-0.2,0.8-0.5,1.2-0.8
			c9.4-7.6,17.6-46,18-54.9c0.1-1.7-0.2-3-0.7-4.2c-2.9,9.9-16.3,55.3-20.4,56.1c-3.8,0.7-31.2-0.9-41-1.5c-0.5,1.8-1.2,2.9-1.2,2.9
			S624.9,561.9,636.9,559.6z"/>
		<g>
			<path class="st23" d="M611.8,667.1c0,0,2,7-2.9,8.8c-4.9,1.8-9,3.9-10.9,5.4c-1.9,1.5-23.1,10.5-25.7,6.2
				c-2.6-4.3,3.7-9.1,5.3-10.6c1.6-1.5,16.1-14,16.1-14L611.8,667.1z"/>
			<path class="st23" d="M628.9,679.3c0,0,2,7-2.9,8.8c-4.9,1.8-9,3.9-10.9,5.4c-1.9,1.5-23.1,10.5-25.7,6.2
				c-2.6-4.3,3.7-9.1,5.3-10.6c1.6-1.5,16.1-14,16.1-14L628.9,679.3z"/>
			<path class="st24" d="M647.2,565.9c0,0-52,32.7-53.5,41c-1.5,8.3-1.2,57.3-1.2,57.3s13.3,5.7,19.7,2.2l5.4-46.1
				c0,0,40.9-30.2,42.7-31.3C662.2,587.8,647.2,565.9,647.2,565.9z"/>
			<path class="st25" d="M660.4,588.9c-1.8,1.1-42.7,31.3-42.7,31.3l-5.4,46.1c-3.1,1.7-7.8,1.3-11.8,0.4c1.8-14,6-44.8,7.4-52.7
				c1.9-10.2,43.9-34.3,43.9-34.3l8.5,8C660.6,588.3,660.6,588.8,660.4,588.9z"/>
			<path class="st24" d="M647.2,567.2c0,0,6,17.8,9.1,21.7c0,0-41.5,22-43.7,32.6c-2.1,10.6-4.7,56.1-4.7,56.1s9.3,6.1,21.8,1.6
				c0,0,4.7-34.9,5.1-49c0,0,62.8-16.6,58.2-51C693,579.2,669,588.8,647.2,567.2z"/>
			<path class="st25" d="M634.9,630.3c-0.5,14.1-5.1,49-5.1,49c-2.2,0.8-4.2,1.2-6.1,1.4c0.4-5.5,0.8-12.6,1.3-22.1
				c2.1-35.2,7.5-34.6,7.5-34.6c39.8-18,47.9-35.2,47.9-35.2l12.8-7.9C695.5,614.2,634.9,630.3,634.9,630.3z"/>
		</g>
		<path class="st20" d="M674,496.1c0,0,19.8,10.1,20.3,11.6c0.5,1.5,5.6,5.2-1.7,22.6c0,0-9.8,18.9-4.9,37.8
			c2.9,11,5.4,16.7,5.4,16.7s-8.8,13.1-33.5,4c-5-1.8-13.4-8.7-15.9-14.1c0,0,2.3-16.2-0.8-35.1c-3.1-18.9-4.8-43.4,5.9-46.7
			C648.8,492.9,651.5,489.6,674,496.1z"/>
		<path class="st26" d="M642.9,539.6c3.1,18.9,0.8,35.1,0.8,35.1c2.5,5.5,10.9,12.3,15.9,14.1c2.8,1,5.3,1.7,7.7,2.2
			c-1-2.7-2.6-7.4-4.3-14c-4.9-18.9,4.9-37.8,4.9-37.8c7.3-17.4,2.2-21.1,1.7-22.6c-0.5-1.5-20.3-11.6-20.3-11.6
			c-2.8-0.8-5.3-1.5-7.6-2C639.5,512.6,640.9,527.3,642.9,539.6z"/>
		<path class="st23" d="M667,490c0,0-14.4,7.6-8,18.5l-6.8,3.7C652.3,512.2,645.6,493.2,667,490z"/>
		<path class="st21" d="M676.3,482.3c0,0-6.1,9.2-1.3,15.4c2.7,3.5-3.6,11.7-14.4,11c0,0-4.8-1.2-4.3-2.9c1.1-4-0.5-6.2-2.2-9.2
			C652.4,493.6,676.3,482.3,676.3,482.3z"/>
		<path class="st27" d="M675,497.8c0.3,0.4,0.5,0.9,0.6,1.4c-4.1-4.1-11.8-4.4-11.8-4.4l10.3-11.3c0.4-0.2,0.7-0.3,1-0.5l0.3,1
			C673.9,486.8,671.4,493.1,675,497.8z"/>
		<path class="st28" d="M656.3,505.9c1-6.3-0.5-6.2-2.2-9.2c-0.5-0.8,1-2.3,3.4-4c0.6,0.4,1.2,1.1,1.7,2c4.2,6.4,4.2,11.5,3.7,14.2
			c-0.7,0-1.5,0.1-2.2,0C659.3,508.6,656,507.8,656.3,505.9z"/>
		<g>
			<path class="st21" d="M678.5,477.2c0,0-2.6,12.2-11,17.7c-7.4,4.9-16.1,8.1-17.7-0.8c-1.3-7.1-4.7-25,1.5-28.6
				c8-4.6,11-10.4,20.2-6.9C671.6,458.6,682.2,463.5,678.5,477.2z"/>
			<path class="st29" d="M678.5,477.2c0,0-1,10.5-11,17.9c-2.2,1.6-4.9,2.9-7,3.7c3.9-2.9,4.3-3.8,7.3-7.3c3-3.5-4.5-2.2,0.6-11.2
				c1.7-3.1-6.8,0.9-8.8,0.8c-11.4-0.3-10.6-6.8-10.8-9.6c0.2-1.2,0.5-2.4,0.9-3.4l1.1-2.1c0.1-0.2,0.3-0.4,0.4-0.6
				c1.3-1.6,2.5-2.9,3.7-4.1c4.9,0.1,18.8,0.4,19.1,0.5c0.2,0.1,2.6,3.3,4.8,6.4C679.5,470.7,679.5,473.7,678.5,477.2z"/>
			<path class="st30" d="M673.5,489c0,0,9.3-8.5,6-20.7c0,0-1.7-9.8-12.6-11.1c-5.2-0.6-15.2-0.3-19.2,10.2
				c-1.2,3.3-0.4,10.5,12.5,7.1c1.8-0.5,6.7-1.1,8.5,0.4c1.7,1.6,1.9,4.5,1.1,7c-0.7,2.2,1.2,2.4,1.5,2c0.3-0.5,2.7-6.7,5.1-4.3
				C678.4,481.8,673.7,488.6,673.5,489z"/>
			<path class="st31" d="M673.5,489c0.2-0.4,4.9-7.2,2.8-9.4c-2.3-2.4-4.8,3.8-5.1,4.3c-0.3,0.5-2.2,0.2-1.5-2
				c0.8-2.5,0.7-5.4-1.1-7c-1.6-1.4-5.9-0.7-8.5-0.4c2.1-1.4,6.4-1.9,7.9-5.4c2-4.8,4.9-7,7.6-7.8c3.1,3.2,3.8,7,3.8,7
				C682.8,480.5,673.5,489,673.5,489z"/>
		</g>
		<path class="st23" d="M673.5,494.8c0,0-2.2,10.9-14.5,13.7l3.5,8.6C662.6,517,684.6,506,673.5,494.8z"/>
		<path class="st32" d="M694.3,507.7c0.5,1.5,5.6,5.2-1.7,22.6c0,0-8.3,18.8-4,37.7c1.8,8.1,1.7,8.7,4.8,15.5c1.8,3.9-6,6.3-13,8.5
			c-4.2-10-3.8-10.2-5.5-21.1c-2.4-15-0.7-27.4,11.6-42.4c10.8-13.2,6.3-18.4,6.5-21.9C693.8,507,694.2,507.5,694.3,507.7z"/>
		<path class="st30" d="M647.8,467.4c0,0-1.9,11.7,13,7.5c0,0,7.5-2,10.5-8.9c0.6-1.5,2.4-3.9,4.9-4.2c0,0-4-5.6-14.3-4.9
			c-4.8,0.3-9.9,5.1-11.1,5.8C649.6,463.4,651.6,468.3,647.8,467.4z"/>
		<g>
			<g>
				<polygon class="st33" points="641.8,584 603.6,606.1 574.1,589 612.2,566.9 				"/>
			</g>
			<g>
				<polygon class="st34" points="610.8,596.9 609.9,597.4 600.9,592.2 601.8,591.7 				"/>
			</g>
			<g>
				<polygon class="st34" points="607.2,599 606.3,599.5 593,591.8 593.9,591.3 				"/>
			</g>
			<g>
				<polygon class="st34" points="609,597.9 608.1,598.5 596.4,591.7 597.4,591.2 				"/>
			</g>
			<g>
				<polygon class="st34" points="597.9,587.3 590.2,591.8 583.3,587.8 591,583.4 				"/>
			</g>
			<g>
				<polygon class="st34" points="603.6,601.1 602.7,601.6 591,594.9 592,594.3 				"/>
			</g>
			<g>
				<polygon class="st34" points="605.4,600 604.5,600.6 595.5,595.4 596.4,594.9 				"/>
			</g>
			<g>
				<polygon class="st34" points="612.6,595.8 611.7,596.4 598.4,588.7 599.3,588.1 				"/>
			</g>
			<g>
				<polygon class="st34" points="623.4,588.5 622.5,589 613.5,583.9 614.4,583.3 				"/>
			</g>
			<g>
				<polygon class="st34" points="619.8,590.6 618.9,591.1 605.6,583.5 606.5,582.9 				"/>
			</g>
			<g>
				<polygon class="st34" points="621.6,589.6 620.7,590.1 609,583.4 609.9,582.8 				"/>
			</g>
			<g>
				<polygon class="st34" points="616.2,592.7 615.3,593.2 603.6,586.5 604.6,586 				"/>
			</g>
			<g>
				<polygon class="st34" points="618,591.7 617.1,592.2 608.1,587 609,586.5 				"/>
			</g>
			<g>
				<polygon class="st34" points="625.2,587.5 624.3,588 611,580.3 611.9,579.8 				"/>
			</g>
		</g>
		<path class="st21" d="M649.1,585.6c0,0-11.9,9.8-23.5,7.5c0,0,0-3,5.2-4.1c5.2-1.1,7.1-5.1,7.1-5.7c0-0.6-4.1-0.9-5.9-1
			c-1.8-0.1-4-2.6,0.4-2.8c4.4-0.3,12-2,16.2-1C648.6,578.4,652.9,582.9,649.1,585.6z"/>
		<path class="st20" d="M687.4,504.1c0,0,9.7,2.3,12.1,10.8c2.4,8.6,6,47.6-0.7,57.7c-6.7,10.1-50.5,15.4-50.5,15.4
			c3.1-6.6-1.3-12.1-1.3-12.1l37.8-15.8C684.8,560.1,678,507.8,687.4,504.1z"/>
		<path class="st26" d="M684.8,560.1L647,575.9c0,0,0.8,1,1.4,2.5c9-3.1,38.8-13.5,41.9-17.2c3.3-4.1-3.8-48.3-4.9-55.2
			C679.1,516.3,684.8,560.1,684.8,560.1z"/>
	</g>
</g>
<g>
	<g>
		<g class="st6">
			<defs>
				<polygon id="SVGID_12_" class="st6" points="23.2,746.7 361.5,550.1 489.4,624 151.1,820.6 				"/>
			</defs>
			<clipPath id="SVGID_13_">
				<use xlink:href="#SVGID_12_"  style="overflow:visible;"/>
			</clipPath>
			<g class="st35">
				<g>
					<g>
						<g>
							<polyline points="489.4,624 361.5,550.1 23.2,746.7 143.4,816.1 489.4,624 							"/>
						</g>
					</g>
				</g>
			</g>
		</g>
	</g>
</g>
<polygon class="st36" points="93.9,233 396.6,61.5 396.6,195.1 93.9,366.4 "/>
<g>
	<g>
		<g>
			<g>
				<path class="st37" d="M370.9,237.9L71.6,407.3v348l43.6,24.2L414.3,263L370.9,237.9z"/>
			</g>
		</g>
		<polygon class="st36" points="414.3,262.9 414.3,613.7 115.2,779.5 115.2,432.5 		"/>
		<g>
			<g>
				<polygon class="st38" points="261.8,440.6 261.8,687.8 339,643.2 339,396 				"/>
			</g>
		</g>
		<g>
			<g>
				<polygon class="st39" points="242.4,500.6 167.2,544 167.7,742.1 242.4,699 				"/>
			</g>
		</g>
		<g>
			<g>
				<polygon class="st40" points="434.2,417.9 359,461.3 359.6,631.3 434.2,588.2 				"/>
			</g>
		</g>
	</g>
	<g>
		<g class="st6">
			<defs>
				<polygon id="SVGID_14_" class="st6" points="116.7,335.5 116.6,287 361.1,145.8 361.3,194.3 				"/>
			</defs>
			<clipPath id="SVGID_16_">
				<use xlink:href="#SVGID_14_"  style="overflow:visible;"/>
			</clipPath>
			<g class="st41">
				<g>
					<path class="st42" d="M136.8,275.3c-3.9,2.2-7.1,4.9-9.8,8c-3.4,4-6,8.4-7.8,13.2c-1.8,4.8-2.7,9.7-2.6,14.6
						c0,4.5,0.8,8.2,2.4,11.1c1.6,2.9,4,4.5,7.2,4.7c3.2,0.2,6.9-0.9,11.2-3.4c3.4-1.9,6.7-4.6,9.9-7.9c3.3-3.4,5.8-6.5,7.5-9.4
						l-0.1-18.7L137,297.7l0,7.9l9.4-5.4l0,5.9c-1.2,1.8-2.7,3.6-4.5,5.4c-1.7,1.8-3.5,3.2-5.2,4.2c-3.5,2-6.3,2.2-8.5,0.7
						c-2.2-1.5-3.3-5.1-3.3-10.7c0-5.2,1-9.7,3.2-13.5c2.1-3.9,5-6.8,8.6-8.9c2.4-1.4,4.4-1.8,5.9-1.4c1.6,0.4,2.7,1.6,3.3,3.6
						l8.2-6.5c-0.8-3.8-2.7-6.2-5.5-7C145.8,271.3,141.9,272.4,136.8,275.3"/>
				</g>
				<g>
					<path class="st42" d="M170.6,276.4l0-11.9l6.4-3.7c3.3-1.9,5.3-3,6-3.3c1.3-0.5,2.4-0.5,3.1,0c0.7,0.6,1.1,1.6,1.1,3.2
						c0,1.4-0.3,2.7-0.8,4c-0.6,1.3-1.3,2.4-2.3,3.3c-1,0.9-3.5,2.6-7.4,4.9L170.6,276.4 M179.7,251.3l-17.3,10l0.1,46.9l8.2-4.8
						l-0.1-19.6l1.7-1c1.9-1.1,3.3-1.7,4.1-1.9c0.9-0.2,1.7,0,2.5,0.5c0.8,0.5,2.2,2,4.4,4.4l6,6.8l9.9-5.7l-5-6.3
						c-2-2.5-3.5-4.1-4.7-4.9c-1.2-0.8-2.6-1.2-4.4-1.4c3.6-2.7,6.3-5.7,8.1-9c1.8-3.3,2.7-6.8,2.7-10.3c0-2.8-0.6-4.9-1.8-6.4
						c-1.2-1.5-2.8-2-4.8-1.8C187.2,247.4,184,248.8,179.7,251.3"/>
				</g>
				<g>
					<path class="st42" d="M236,218.8l-8.2,4.8l0.1,25.9c0,3.7-0.1,6.4-0.3,8.2c-0.2,1.7-0.9,3.5-2.1,5.3c-1.2,1.8-2.9,3.4-5.3,4.7
						c-2.3,1.3-4.1,1.8-5.4,1.4c-1.3-0.4-2.2-1.4-2.5-3.2c-0.2-1.1-0.3-3.6-0.3-7.7l-0.1-25.4l-8.2,4.8l0.1,25
						c0,5.2,0.3,9.1,0.8,11.4c0.4,1.6,1.2,2.9,2.3,3.9c1.2,1,2.8,1.4,4.8,1.3c2-0.1,5-1.3,8.9-3.6c3.2-1.9,5.8-3.9,7.8-6
						c2-2.1,3.6-4.3,4.8-6.6c1.2-2.3,2-4.7,2.4-7.3c0.4-2.6,0.6-6.7,0.6-12.3L236,218.8"/>
				</g>
				<g>
					<path class="st42" d="M253,230.3l0-13.3l4-2.3c3-1.7,4.9-2.8,5.9-3.1c1.3-0.5,2.4-0.4,3.3,0.2c0.9,0.6,1.3,1.8,1.3,3.5
						c0,1.4-0.3,2.8-0.9,4.2c-0.6,1.4-1.5,2.7-2.6,3.8c-1.1,1.1-3.3,2.6-6.5,4.5L253,230.3 M257.9,206.2l-13.2,7.6l0.1,46.9l8.2-4.8
						l-0.1-17.7l5.4-3.1c3.7-2.2,6.6-4,8.5-5.6c1.4-1.2,2.9-2.8,4.3-4.7c1.4-1.9,2.5-4.1,3.5-6.6c0.9-2.5,1.3-5.2,1.3-8
						c0-3.7-0.8-6.3-2.4-7.8c-1.6-1.4-3.5-1.8-5.9-1.2C266.2,201.6,262.9,203.3,257.9,206.2"/>
				</g>
				<g>
					<path class="st42" d="M300.9,221c-3.3,1.9-6,2.1-8.1,0.6c-2.1-1.5-3.2-4.9-3.2-10.2c0-5.4,1-10,3.1-13.9
						c2.1-3.9,4.8-6.8,8.2-8.8c3.4-2,6.1-2.2,8.2-0.8c2.1,1.5,3.1,4.9,3.1,10.2c0,5.4-1,10.1-3.1,14.1
						C306.9,216.2,304.2,219.1,300.9,221 M300.7,180.6c-3.3,1.9-6.2,4.2-8.8,6.9c-1.9,2-3.7,4.4-5.3,7.3c-1.6,2.8-2.9,5.7-3.8,8.6
						c-1.2,4-1.8,8.3-1.8,13.1c0,7.5,1.8,12.3,5.4,14.5c3.6,2.2,8.4,1.5,14.5-2c6-3.5,10.8-8.4,14.3-14.7c3.6-6.3,5.3-13.3,5.3-20.9
						c0-7.6-1.8-12.6-5.5-14.8C311.6,176.5,306.8,177.2,300.7,180.6"/>
				</g>
				<g>
					<path class="st42" d="M361.1,146.4l-6.3,3.7c-0.9,3.4-2.5,6.8-4.9,10.4s-4.6,6.3-6.6,8.2l0,8.2c3.9-3.7,7.2-7.9,10.1-12.7
						l0.1,33.9l7.8-4.5L361.1,146.4"/>
				</g>
			</g>
		</g>
	</g>
	<g>
		<g class="st6">
			<defs>
				<polygon id="SVGID_17_" class="st6" points="122.8,255.8 122.8,243.6 174.2,213.9 174.2,226.1 				"/>
			</defs>
			<clipPath id="SVGID_18_">
				<use xlink:href="#SVGID_17_"  style="overflow:visible;"/>
			</clipPath>
			<g class="st43">
				<g>
					<path class="st44" d="M127.2,243.1c-2.6,1.5-4.4,4.6-4.4,7.7c0,3.2,1.8,3.9,4.2,2.5c1-0.6,1.8-1.3,2.2-1.8l-0.2-0.9
						c-0.4,0.5-1.1,1.1-1.8,1.4c-2.1,1.2-3.3,0.4-3.3-2c0-2.6,1.3-4.8,3.3-5.9c0.7-0.4,1.3-0.6,1.7-0.6l0.3-1.2
						C128.9,242.4,128.3,242.5,127.2,243.1"/>
				</g>
				<g>
					<path class="st44" d="M131.7,245.3l0-3.6c0.2-0.2,0.5-0.4,1.1-0.7c1.2-0.7,2-0.6,2,0.7c0,1.1-0.7,2.3-1.9,3L131.7,245.3
						 M132.7,240.1c-0.8,0.4-1.5,1-2.1,1.4l0,9.6l1.1-0.6l0-4.2l1-0.6c1-0.5,1.5-0.3,1.7,0.9c0.2,1.1,0.4,1.8,0.6,2l1.1-0.7
						c-0.2-0.3-0.4-1.1-0.7-2.3c-0.2-0.9-0.6-1.4-1.3-1.2l0,0c0.9-0.9,1.6-2.1,1.6-3.4c0-0.7-0.2-1.3-0.7-1.5
						C134.6,239.2,133.8,239.4,132.7,240.1"/>
				</g>
				<g>
					<path class="st44" d="M141.9,234.8l-4.6,2.6l0,9.8l4.8-2.8l0-1l-3.7,2.1l0-3.5l3.3-1.9l0-1l-3.3,1.9l0-3.1l3.5-2L141.9,234.8
						 M141.5,232.8l-1.3,0.8L139,236l0.9-0.5L141.5,232.8"/>
				</g>
				<g>
					<path class="st44" d="M145.8,241.4c-0.4,0.2-0.8,0.5-1.1,0.6l0-7.7c0.3-0.2,0.7-0.5,1.3-0.9c2.3-1.3,3.5-0.5,3.4,1.8
						C149.4,237.8,148.1,240.1,145.8,241.4 M145.9,232.4c-0.9,0.5-1.7,1-2.3,1.5l0,9.6c0.6-0.3,1.2-0.6,2-1c1.6-1,3-2.2,3.8-3.6
						c0.8-1.4,1.2-2.9,1.2-4.5c0-1.6-0.4-2.4-1.2-2.8C148.6,231.3,147.4,231.5,145.9,232.4"/>
				</g>
				<g>
					<polyline class="st44" points="153,228.4 151.9,229 151.9,238.8 153,238.1 153,228.4 					"/>
				</g>
				<g>
					<polyline class="st44" points="160.2,224.2 154,227.8 154,228.9 156.5,227.4 156.6,236.1 157.7,235.5 157.6,226.8 160.2,225.3 
						160.2,224.2 					"/>
				</g>
				<g>
					<path class="st44" d="M164.2,230.8c-1.7,1-2.7-0.3-2.7-2.4c0-2.1,0.9-4.6,2.7-5.6c1.8-1.1,2.7,0.5,2.7,2.4
						C166.9,227.4,166,229.8,164.2,230.8 M164.3,221.7c-2.3,1.3-3.9,4.3-3.9,7.4c0,2.9,1.6,4,3.8,2.7c2.2-1.2,3.9-4,3.9-7.4
						C168.1,221.6,166.6,220.4,164.3,221.7"/>
				</g>
				<g>
					<path class="st44" d="M172,217.3c-1.7,1-2.7,2.7-2.7,4.2c0,1.4,0.9,1.7,2.2,1.5c1.1-0.2,1.6,0.1,1.6,1c0,1-0.6,2-1.8,2.7
						c-0.8,0.4-1.5,0.6-2,0.5l-0.3,1.2c0.5,0.1,1.3-0.2,2.2-0.6c2-1.2,3-3,3-4.5c0-1.4-0.7-1.8-2.2-1.6c-1.2,0.2-1.7,0-1.7-0.9
						c0-0.7,0.4-1.7,1.6-2.4c0.8-0.4,1.3-0.5,1.6-0.5l0.3-1.2C173.5,216.6,172.9,216.8,172,217.3"/>
				</g>
			</g>
		</g>
	</g>
</g>
<g>
	<g>
		<path d="M441.4,719.3c22.1,12.7,22.2,33.4,0.3,46.1c-21.9,12.7-57.6,12.7-79.6,0c-22.1-12.7-22.2-33.4-0.3-46.1
			C383.7,706.6,419.4,706.6,441.4,719.3z"/>
	</g>
	<g>
		<g>
			<g>
				<path class="st45" d="M406.6,513.8c0,0-0.9-10.2-15.3-9.4c-14.5,0.7-28.9,3.4-28.9,3.4l-23.9-23.3c0,0-6.2,1.3-7.4,5.5
					c0,0,16.5,28.2,28.3,32.8C359.5,522.8,411.6,536.1,406.6,513.8z"/>
			</g>
			<g>
				<path class="st21" d="M337.3,484.8c0,0-1.2-7.3-3.3-9.9c-2-2.6-4.1-3.8-4.9-4.1c-0.9-0.3,1,3.1,1.6,4.2c0.6,1.1,0.3,4.1-5.6-0.9
					c-5.9-5-5-3.2-5.1-2.6c-0.1,0.7,4,13.1,11.4,17.7C331.5,489.2,332.8,486.5,337.3,484.8z"/>
			</g>
			<g>
				<path class="st46" d="M359.5,522.8c-11.8-4.5-28.3-32.8-28.3-32.8c0.3-1.2,1-2.1,1.9-2.9c4,5.3,15.6,20.9,23.1,29.1
					c9.2,9.9,50.5,1.9,50.6,1.6C404.8,534.4,359.5,522.8,359.5,522.8z"/>
			</g>
		</g>
		<g>
			<path class="st47" d="M400.6,711.1c0,0-5.7,1.4-4,4.6c1.7,3.2,8.8,7.7,9.8,9.7c1.1,2,7.2,9.1,8.8,8.2c1.7-0.9,6.3-0.2,5-8.7
				C419.1,716.3,408.3,710,400.6,711.1z"/>
		</g>
		<g>
			<path class="st47" d="M408.1,729.4c0,0,4.3,7.6-2.2,10.8c-6.5,3.3-5.3-1.5-19.6,5.3c-14.2,6.8-17.5-0.7-17.5-2.5
				c0-1.8,9.4-6.9,12.5-8.4c3.1-1.5,9-4.3,9-4.3l17.8-3.5L408.1,729.4z"/>
		</g>
		<g>
			<g>
				<path class="st48" d="M408.4,596.6c0,0,4.5,49.7,5,55.3c0.5,5.6,10.6,49.1,8.6,68.7c0,0-9.9,11.8-20.4,1.8
					c0,0-7.9-54.9-11.8-67.1c-3.9-12.2-6.3-50.4-6.3-50.4L408.4,596.6z"/>
			</g>
		</g>
		<g>
			<path class="st48" d="M391.1,592.1c0,0,3.8,32.1,7.4,63.9c0,0,10.7,62.5,11,71.8c0,0-19.1,8.9-23-0.1c0,0-10.3-54.8-13-66.2
				c-2.8-11.3-12.5-46.7-11.6-66C362.8,576.2,391.1,592.1,391.1,592.1z"/>
		</g>
		<g>
			<g>
				<path class="st49" d="M409.5,727.8c-0.3-9.3-11-71.8-11-71.8c-2.5-21.4-5.4-46.5-6.8-58.3l-13.1,5.3c0,0-2.6,28.9,5.7,63.8
					c6.4,27,12.1,53.7,14.4,64.4C404.3,730.2,409.5,727.8,409.5,727.8z"/>
			</g>
		</g>
		<g>
			<path class="st49" d="M421.9,720.6c2-19.6-8.1-63.1-8.6-68.7c-0.5-5.3-2.8-47.9-3.1-52.2l-12,6.7c0,0-0.3,35.8,4.9,55.8
				c4.8,18.1,5.9,54.2,8.4,64.3C417.5,725.8,421.9,720.6,421.9,720.6z"/>
		</g>
		<g>
			<path class="st45" d="M402.3,504.5c0,0,11.1,4.1,7.1,22.5c-3.9,18.5-6.8,30.5-5.7,37.1c1.1,6.6,5.6,31,7.5,35.4
				c0,0,1.7,7.5-26.4,14.6c0,0-25.3,5.9-22.9-12.8c2.5-18.7-3.2-38.1-4.7-45c-1.5-6.9-7.3-20.4,9.1-31.8
				C382.7,513,391,505,402.3,504.5z"/>
		</g>
		<g>
			<g>
				<path class="st21" d="M388.9,497.1c0,0-0.1,9.4,3.8,14.9c3.5,5-17.9,12.2-18.9,7.4c-0.1-0.5,3.2-9-3.2-17.9
					C367.2,496.8,388.9,497.1,388.9,497.1z"/>
			</g>
			<g>
				<path class="st27" d="M392.6,512.3c-2.9-4.1-3.6-10.3-3.7-13.3l-15.1,9.7c0,0,0,0,0,0c0.6,0.1,11.7,1.6,14.9,9.1
					C391.8,516.2,393.9,514.1,392.6,512.3z"/>
			</g>
			<g>
				<path class="st21" d="M363,475c0,0-2.5,8.8-1,16c1.6,7.7,0.6,9.5,1.5,12.9c0.4,1.5,0.7,3.7,2.4,4.9c2.7,2.1,7.7,2.4,14.2-0.9
					c7.8-3.9,15.2-16.1,10.5-25.8C386.1,472.4,374.4,465.4,363,475z"/>
			</g>
			<g>
				<path class="st29" d="M391.6,493.1c-4.3-8.7-13.6-18.7-13.6-19.3c0-0.4-2.9-1.7-6.2-3.2c-2.8,0.5-5.8,1.9-8.7,4.3
					c0,0-0.7,2.4-1.1,5.6c2.2,2,6.4,4,7.2,5.8c1.9,4.2,1.9,10.9,0.9,13.9c-1,3.1,4.8,6.7,3.9,9.4c0,0.1,0,0.2,0,0.4
					c1.9-0.4,3.9-1,6.2-2.1C385.2,505.4,390,499.6,391.6,493.1z"/>
			</g>
			<g>
				<path class="st31" d="M360.2,471.8c0,0-0.4,7.4,7.2,10.1c4.5,1.6,4.9,8.6,4.8,9.9c-0.1,1.3-0.7,7.3,0,8c1.2,1.3,4-3.5,5.6-3.4
					c4.2,0.3,3,4.3-0.2,8.7c-3.5,4.7,7.1,5.2,11.4,1.2c2.3-2.1,3.1-3.3,5.7-10.3c3.8-10.2,2.7-21.8-9.4-26.7
					C373.2,464.2,367.6,473.8,360.2,471.8z"/>
			</g>
			<g>
				<path class="st30" d="M389,506.1c2.3-2.1,3.1-3.3,5.7-10.3c3.8-10.2,2.7-21.8-9.4-26.7c-12.1-4.9-17.7,4.7-25.1,2.7
					c0,0-0.1,1.3,0.4,2.9c3.7,0.2,13.8,1,16.8,5c3.7,4.9,7,2.8,7.5,9.3c0.5,6.3,3,14.3-7.1,19.1C382,510.5,387.3,507.7,389,506.1z"
					/>
			</g>
		</g>
		<g>
			<path class="st46" d="M374.6,516.3l-6.5,6.8c0,0,22.9,3.9,28.2-7.8c0.7-1.6-1-6.7-4.9-7.2C391.5,508.2,391.7,517.1,374.6,516.3z"
				/>
		</g>
		<g>
			<path class="st46" d="M360.2,600.6c2.5-18.7-1.5-37.5-3-44.4c-1.5-6.8-7.1-20.1,8.7-31.5c6.3,2.9,15.6,9.6,12.3,23.1
				c-4.1,16.7-2.2,51.8-1.7,67C369.4,614.9,358.7,612.1,360.2,600.6z"/>
		</g>
		<path class="st21" d="M322.5,493.3c0,0,0.7-5.5-1-7.3c-1.7-1.8-5.4-9.4-7-10.4c-1.6-1-1,2-0.5,4c0.5,2,0.2,5.9-0.5,5.4
			c-0.7-0.5-3.9,1.8-3.3,4.6c0.6,2.8,5.1,7.3,5.2,8C315.5,498.2,322.5,493.3,322.5,493.3z"/>
		<g>
			<path class="st45" d="M373.8,537.2c0,0,1.9-9-10.8-12.2c-12.7-3.2-25.8-4.7-25.8-4.7L322.6,494c0,0-5.7-0.5-7.8,2.9
				c0,0,6.8,28.7,15.9,35.8C330.7,532.6,372.2,557.8,373.8,537.2z"/>
		</g>
	</g>
</g>
</svg>
